<svg width="27" height="20" viewBox="0 0 27 20" fill="none" xmlns="http://www.w3.org/2000/svg">
<path fill-rule="evenodd" clip-rule="evenodd" d="M13.5 18.5713L12.6382 19.3498H12.6337L12.6247 19.3441L12.5977 19.3327C12.4433 19.2631 12.2911 19.1917 12.141 19.1184C10.3367 18.24 8.66112 17.2598 7.13475 16.1898C4.446 14.2913 1.50075 11.5313 1.50075 8.43984C1.50075 6.34269 2.74725 4.32126 4.98825 2.82555C6.08096 2.08699 7.39928 1.49757 8.86272 1.09328C10.3262 0.688995 11.904 0.478321 13.5 0.474121C15.0958 0.478137 16.6736 0.688588 18.137 1.09263C19.6004 1.49667 20.9188 2.08582 22.0117 2.82412C24.2624 4.34348 25.5104 6.35266 25.4992 8.43841C25.4992 11.5313 22.554 14.2913 19.8652 16.187C18.2381 17.3268 16.4418 18.3644 14.5012 19.2855C14.4683 19.3009 14.4353 19.3161 14.4022 19.3313L14.373 19.3427L14.3662 19.347H14.3617C14.3617 19.347 14.3617 19.3498 13.5 18.5698V18.5713ZM13.5 18.5713L14.3617 19.3498C14.1092 19.4621 13.8083 19.5223 13.5 19.5223C13.1917 19.5223 12.8908 19.4621 12.6382 19.3498L13.5 18.5713ZM7.49925 8.09555C7.4838 7.5891 7.62757 7.08578 7.92214 6.61503C8.21671 6.14427 8.65617 5.71554 9.21482 5.35391C9.77347 4.99228 10.4401 4.70501 11.1757 4.5089C11.9113 4.31279 12.7011 4.21178 13.4989 4.21178C14.2967 4.21178 15.0865 4.31279 15.8221 4.5089C16.5577 4.70501 17.2243 4.99228 17.7829 5.35391C18.3416 5.71554 18.781 6.14427 19.0756 6.61503C19.3702 7.08578 19.5139 7.5891 19.4985 8.09555C19.4681 9.09306 18.8226 10.0432 17.7008 10.7418C16.5789 11.4404 15.0702 11.8318 13.4989 11.8318C11.9275 11.8318 10.4188 11.4404 9.29698 10.7418C8.17515 10.0432 7.52967 9.09306 7.49925 8.09555Z" fill="black"/>
</svg>
