<svg width="33" height="56" viewBox="0 0 33 56" fill="none" xmlns="http://www.w3.org/2000/svg">
<g clip-path="url(#clip0_1_345)">
<path fill-rule="evenodd" clip-rule="evenodd" d="M17.4775 6.8906C15.3908 11.0027 15.2796 15.7261 17.1158 19.7549C15.0013 17.0737 13.0678 14.448 12.4 10.9611C11.8297 8.02977 11.6906 4.54279 12.7478 0C8.49104 7.29348 8.69971 13.545 12.247 18.5602C15.8499 23.6447 21.5812 26.9789 29.2322 30.4242C28.8586 30.0714 28.4289 29.695 27.9576 29.2822C25.8493 27.4356 22.9103 24.8613 20.4545 20.4217C18.4373 16.768 17.714 12.7115 17.4775 6.8906ZM16.5018 25.7704C10.3936 22.4407 7.78925 19.3406 6.33424 17.6091C6.27159 17.5345 6.21107 17.4625 6.1525 17.3931C4.41363 25.0616 9.53285 26.7427 12.9133 26.9649C8.10002 29.021 5.08075 31.4523 2.71589 35.3559C-0.887038 41.2741 -0.121935 46.2892 0.629254 48.8732C1.36653 51.3877 3.63402 54.8886 5.03902 56C0.85183 46.4282 2.47941 40.7184 5.06684 36.8146C7.33432 33.3832 9.99132 31.1466 14.568 29.2712C15.0409 29.0766 15.5557 28.8821 16.1121 28.6737C16.1896 28.7125 16.273 28.7511 16.3626 28.7926C16.4658 28.8405 16.5771 28.892 16.6964 28.9516C20.1324 30.5493 24.1248 32.2163 27.0461 33.425L27.1853 33.4805L26.0863 34.6058C25.808 34.8976 25.4046 35.0225 25.0152 34.9531C23.5127 34.6892 21.5234 34.6335 20.5636 34.6335C11.5772 34.6335 7.07001 38.0372 5.74848 43.0107C4.886 46.2615 6.0267 49.6512 7.90467 51.9017C10.2556 54.7219 14.095 55.9861 17.7676 55.9861H24.876C21.9408 54.4858 19.1308 52.6798 17.4337 50.7765C15.5975 48.7205 14.1367 45.8864 14.6654 42.7189C15.1106 39.996 17.0998 37.5927 20.2297 37.3982H20.5775C21.1757 37.3982 21.7878 37.426 22.372 37.4676H22.4138C23.5962 37.5649 24.7786 37.7594 25.8358 38.0372C26.9209 38.3151 28.0756 37.9955 28.8545 37.1898L33 32.9387L32.3044 32.6887C32.2929 32.6829 32.1124 32.608 31.7956 32.4764C29.8227 31.657 22.5614 28.6414 17.851 26.451C17.3919 26.2426 16.933 26.0065 16.5018 25.7704Z" fill="black"/>
</g>
<defs>
<clipPath id="clip0_1_345">
<rect width="33" height="56" fill="white"/>
</clipPath>
</defs>
</svg>
