<svg width="27" height="27" viewBox="0 0 27 27" fill="none" xmlns="http://www.w3.org/2000/svg">
<g clip-path="url(#clip0_1_24)">
<path d="M27 13.5C27 6.04416 20.9558 0 13.5 0C6.04416 0 0 6.04416 0 13.5C0 20.9558 6.04416 27 13.5 27C20.9558 27 27 20.9558 27 13.5Z" fill="black"/>
<path fill-rule="evenodd" clip-rule="evenodd" d="M20.7697 7.83786C21.1635 8.19561 21.204 8.81661 20.8597 9.22611L12.5527 19.0699C12.473 19.1663 12.3745 19.2455 12.2633 19.3028C12.152 19.3601 12.0303 19.3942 11.9055 19.4032C11.7807 19.4121 11.6554 19.3956 11.5371 19.3548C11.4188 19.3139 11.3101 19.2495 11.2174 19.1655L6.23362 14.6914C6.0428 14.5163 5.92648 14.2747 5.90869 14.0163C5.89089 13.758 5.97298 13.5027 6.138 13.3031C6.21746 13.2059 6.31588 13.1258 6.42726 13.0678C6.53864 13.0098 6.66065 12.975 6.78588 12.9657C6.91111 12.9563 7.03694 12.9725 7.15571 13.0133C7.27448 13.0541 7.3837 13.1186 7.47675 13.203L11.7461 17.037L19.4299 7.93011C19.5099 7.83342 19.6088 7.75402 19.7204 7.69672C19.8321 7.63942 19.9542 7.60542 20.0795 7.59679C20.2047 7.58817 20.3303 7.60509 20.4488 7.64653C20.5673 7.68797 20.6772 7.75306 20.7697 7.83786Z" fill="white"/>
</g>
<defs>
<clipPath id="clip0_1_24">
<rect width="27" height="27" fill="white"/>
</clipPath>
</defs>
</svg>
