<svg width="20" height="20" viewBox="0 0 20 20" fill="none" xmlns="http://www.w3.org/2000/svg">
<path d="M10.2225 3.33335C8.45438 3.33335 6.75869 4.03573 5.50845 5.28598C4.25821 6.53622 3.55583 8.23191 3.55583 10C3.55583 11.7681 4.25821 13.4638 5.50845 14.7141C6.75869 15.9643 8.45438 16.6667 10.2225 16.6667C11.9906 16.6667 13.6863 15.9643 14.9365 14.7141C16.1868 13.4638 16.8892 11.7681 16.8892 10C16.8892 8.23191 16.1868 6.53622 14.9365 5.28598C13.6863 4.03573 11.9906 3.33335 10.2225 3.33335ZM1.88916 10C1.88916 5.39752 5.61999 1.66669 10.2225 1.66669C14.8242 1.66669 18.5558 5.39752 18.5558 10C18.5558 14.6025 14.8242 18.3334 10.2225 18.3334C5.61999 18.3334 1.88916 14.6025 1.88916 10Z" fill="black"/>
<path d="M8.84168 11.51H10.7275V11.32C10.7275 10.6916 11.0275 10.3758 11.6058 10.0391C12.385 9.58915 12.9167 9.02331 12.9167 8.06331C12.9167 6.57665 11.65 5.83331 9.94418 5.83331C8.39001 5.83331 7.09918 6.56081 7.08334 8.29998H9.12918C9.12918 7.84581 9.49584 7.52498 9.92834 7.52498C10.3283 7.52498 10.6475 7.79415 10.6475 8.18915C10.6475 8.63248 10.26 8.90498 9.75251 9.23331C9.15668 9.61665 8.84168 10.02 8.84168 11.32V11.51ZM9.81668 14.1666C10.4033 14.1666 10.9267 13.6766 10.935 13.06C10.9267 12.4591 10.4033 11.9683 9.81668 11.9683C9.19668 11.9683 8.68918 12.4591 8.69751 13.06C8.68918 13.6766 9.19751 14.1666 9.81668 14.1666Z" fill="black"/>
</svg>
