<svg width="140" height="28" viewBox="0 0 140 28" fill="none" xmlns="http://www.w3.org/2000/svg">
<g clip-path="url(#clip0_1_347)">
<path d="M14.1073 28C10.0473 28 6.6815 26.663 4.00867 23.989C1.337 21.2893 0 17.9597 0 14C0 10.0403 1.33583 6.7235 4.00867 4.0495C6.68033 1.34983 10.0473 0 14.1073 0C16.548 0 18.7973 0.578667 20.853 1.736C22.9343 2.89217 24.5525 4.46133 25.7087 6.44117L21.8552 8.67767C21.1353 7.34067 20.0818 6.286 18.6935 5.516C17.332 4.718 15.8037 4.319 14.1073 4.319C11.2292 4.319 8.89117 5.2325 7.09217 7.05833C5.31883 8.883 4.43217 11.1977 4.43217 14C4.43217 16.8023 5.31883 19.117 7.09217 20.9417C8.89117 22.7675 11.2292 23.681 14.1073 23.681C15.8037 23.681 17.3448 23.2948 18.732 22.5237C20.1203 21.7268 21.161 20.6593 21.8552 19.3223L25.7087 21.5203C24.5782 23.5002 22.9728 25.0822 20.8903 26.264C18.8358 27.4213 16.5737 28 14.1073 28ZM44.3473 8.2145H48.51V27.4995H44.3473V24.7228C42.7817 26.9057 40.5323 28 37.6028 28C34.9557 28 32.6947 27.0235 30.8187 25.0693C28.9427 23.0895 28.0047 20.685 28.0047 17.857C28.0047 15.0033 28.9427 12.5988 30.8187 10.6447C32.6947 8.6905 34.9557 7.714 37.6028 7.714C40.5312 7.714 42.7805 8.79317 44.3473 10.9527V8.2145ZM33.9033 22.2915C35.0595 23.4488 36.512 24.0275 38.2585 24.0275C40.0062 24.0275 41.4575 23.4488 42.6148 22.2915C43.7698 21.1097 44.3485 19.6315 44.3485 17.857C44.3485 16.0837 43.771 14.6172 42.6148 13.4598C41.4575 12.2768 40.0062 11.6865 38.2585 11.6865C36.512 11.6865 35.0595 12.2768 33.9033 13.4598C32.7472 14.6172 32.1685 16.0825 32.1685 17.857C32.1685 19.6303 32.7472 21.1097 33.9033 22.2915ZM57.5248 11.4543C58.5795 9.06267 60.5582 7.868 63.4608 7.868V12.3807C61.8683 12.2768 60.48 12.663 59.2982 13.5368C58.1163 14.3862 57.5248 15.8002 57.5248 17.78V27.4983H53.3633V8.2145H57.526L57.5248 11.4543ZM70.4678 4.55C69.9545 5.06567 69.3373 5.32233 68.6187 5.32233C67.8988 5.32233 67.2688 5.06567 66.7287 4.55117C66.2153 4.011 65.9587 3.381 65.9587 2.66117C65.9587 1.94133 66.2153 1.32417 66.7287 0.809667C67.2432 0.2695 67.872 0 68.6187 0C69.363 0 69.993 0.2695 70.5063 0.809667C71.0208 1.32417 71.2775 1.94133 71.2775 2.66117C71.2775 3.381 71.008 4.00983 70.4678 4.55ZM66.5362 27.4983V8.2145H70.7V27.4995H66.5373L66.5362 27.4983ZM86.4407 7.714C89.0878 7.714 91.3488 8.6905 93.2248 10.6447C95.1008 12.5988 96.0388 15.0033 96.0388 17.857C96.0388 20.685 95.1008 23.0895 93.2248 25.0693C91.35 27.0235 89.0878 28 86.4407 28C83.5123 28 81.263 26.9068 79.6962 24.7217V27.4983H75.5335V0.501667H79.6962V10.9527C81.263 8.79433 83.5112 7.714 86.4407 7.714ZM81.4298 22.2915C82.5872 23.4488 84.0385 24.0275 85.7862 24.0275C87.5327 24.0275 88.9852 23.4488 90.1413 22.2915C91.2975 21.1097 91.8762 19.6315 91.8762 17.857C91.8762 16.0837 91.2975 14.6172 90.1413 13.4598C88.9852 12.2768 87.5327 11.6865 85.7862 11.6865C84.0385 11.6865 82.5872 12.2768 81.4298 13.4598C80.2748 14.6172 79.6962 16.0825 79.6962 17.857C79.6962 19.6303 80.2737 21.1097 81.4298 22.2915ZM108.908 28C106.081 28 103.679 27.0235 101.701 25.0693C99.722 23.1152 98.7327 20.7107 98.7327 17.857C98.7327 15.0033 99.722 12.5988 101.701 10.6447C103.679 8.6905 106.081 7.714 108.908 7.714C111.761 7.714 114.163 8.6905 116.116 10.6447C118.095 12.5988 119.084 15.0033 119.084 17.857C119.084 20.7107 118.095 23.1152 116.116 25.0693C114.163 27.0235 111.76 28 108.908 28ZM104.629 22.2145C105.786 23.3718 107.212 23.9505 108.908 23.9505C110.603 23.9505 112.03 23.3718 113.186 22.2145C114.343 21.0583 114.921 19.6047 114.921 17.857C114.921 16.1082 114.343 14.6557 113.186 13.4983C112.03 12.341 110.603 11.7635 108.908 11.7635C107.212 11.7635 105.786 12.341 104.629 13.4983C103.474 14.6557 102.895 16.1082 102.895 17.857C102.895 19.6047 103.473 21.0583 104.629 22.2145ZM135.837 8.2145H140V27.4995H135.837V25.0297C134.578 27.0095 132.587 28 129.863 28C127.653 28 125.867 27.293 124.506 25.879C123.143 24.465 122.463 22.5237 122.463 20.055V8.2145H126.625V19.6303C126.625 21.0712 127.01 22.176 127.781 22.9472C128.553 23.7195 129.606 24.1045 130.942 24.1045C132.407 24.1045 133.589 23.6542 134.489 22.7547C135.387 21.8295 135.837 20.4283 135.837 18.5512V8.2145Z" fill="black"/>
</g>
<defs>
<clipPath id="clip0_1_347">
<rect width="140" height="28" fill="white"/>
</clipPath>
</defs>
</svg>
