<svg width="32" height="32" viewBox="0 0 32 32" fill="none" xmlns="http://www.w3.org/2000/svg">
<g clip-path="url(#clip0_1_352)">
<path fill-rule="evenodd" clip-rule="evenodd" d="M28 32H4C1.79 32 0 30.21 0 28V4C0 1.79 1.79 0 4 0H28C30.21 0 32 1.79 32 4V28C32 30.21 30.21 32 28 32Z" fill="white"/>
<path d="M16 7.8C18.67 7.8 18.99 7.81 20.04 7.86C21.01 7.9 21.54 8.07 21.9 8.2C22.37 8.38 22.7 8.6 23.05 8.95C23.4 9.3 23.62 9.63 23.8 10.1C23.94 10.45 24.1 10.98 24.14 11.96C24.19 13.01 24.2 13.33 24.2 16C24.2 18.67 24.19 18.99 24.14 20.04C24.1 21.01 23.93 21.54 23.8 21.9C23.62 22.37 23.4 22.7 23.05 23.05C22.7 23.4 22.37 23.62 21.9 23.8C21.55 23.94 21.02 24.1 20.04 24.14C18.99 24.19 18.67 24.2 16 24.2C13.33 24.2 13.01 24.19 11.96 24.14C10.98 24.1 10.46 23.93 10.1 23.8C9.63 23.62 9.3 23.4 8.95 23.05C8.6 22.7 8.39 22.36 8.2 21.9C8.06 21.55 7.9 21.02 7.86 20.04C7.81 18.99 7.8 18.67 7.8 16C7.8 13.33 7.81 13.01 7.86 11.96C7.9 10.98 8.07 10.46 8.2 10.1C8.38 9.63 8.6 9.3 8.95 8.95C9.3 8.6 9.64 8.39 10.1 8.2C10.45 8.06 10.98 7.9 11.96 7.86C13.01 7.81 13.33 7.8 16 7.8ZM16 6C13.28 6 12.94 6.01 11.88 6.06C10.82 6.11 10.09 6.28 9.45 6.52C8.79 6.78 8.23 7.12 7.68 7.67C7.12 8.23 6.78 8.78 6.53 9.44C6.28 10.08 6.11 10.8 6.07 11.87C6.01 12.94 6 13.28 6 16C6 18.72 6.01 19.06 6.06 20.12C6.11 21.18 6.28 21.91 6.52 22.55C6.78 23.21 7.12 23.77 7.67 24.32C8.23 24.88 8.78 25.22 9.44 25.47C10.08 25.72 10.8 25.89 11.87 25.93C12.94 25.99 13.28 26 16 26C18.72 26 19.06 25.99 20.12 25.94C21.18 25.89 21.91 25.72 22.55 25.48C23.21 25.22 23.77 24.88 24.32 24.33C24.88 23.77 25.22 23.22 25.47 22.56C25.72 21.92 25.89 21.2 25.93 20.13C25.99 19.06 26 18.72 26 16C26 13.28 25.99 12.94 25.94 11.88C25.89 10.82 25.72 10.09 25.48 9.45C25.22 8.79 24.88 8.23 24.33 7.68C23.77 7.12 23.22 6.78 22.56 6.53C21.92 6.28 21.2 6.11 20.13 6.07C19.06 6.01 18.72 6 16 6Z" fill="#020203"/>
<path d="M16.01 10.8701C13.17 10.8701 10.87 13.1701 10.87 16.0101C10.87 18.8501 13.17 21.1501 16.01 21.1501C18.85 21.1501 21.15 18.8501 21.15 16.0101C21.14 13.1701 18.84 10.8701 16.01 10.8701ZM16.01 19.3401C14.17 19.3401 12.68 17.8501 12.68 16.0101C12.68 14.1701 14.17 12.6801 16.01 12.6801C17.85 12.6801 19.34 14.1701 19.34 16.0101C19.34 17.8501 17.85 19.3401 16.01 19.3401Z" fill="#020203"/>
<path d="M22.54 10.66C22.54 11.32 22 11.86 21.34 11.86C20.68 11.86 20.14 11.32 20.14 10.66C20.14 9.99996 20.68 9.45996 21.34 9.45996C22 9.45996 22.54 9.99996 22.54 10.66Z" fill="#020203"/>
</g>
<defs>
<clipPath id="clip0_1_352">
<rect width="32" height="32" fill="white"/>
</clipPath>
</defs>
</svg>
