<svg width="32" height="32" viewBox="0 0 32 32" fill="none" xmlns="http://www.w3.org/2000/svg">
<g clip-path="url(#clip0_1_349)">
<path fill-rule="evenodd" clip-rule="evenodd" d="M28 32H4C1.79 32 0 30.21 0 28V4C0 1.79 1.79 0 4 0H28C30.21 0 32 1.79 32 4V28C32 30.21 30.21 32 28 32Z" fill="white"/>
<path fill-rule="evenodd" clip-rule="evenodd" d="M26 9.89C25.26 10.21 24.47 10.43 23.64 10.53C24.49 10.03 25.14 9.24 25.44 8.3C24.65 8.76 23.77 9.1 22.83 9.28C22.09 8.49 21.03 8 19.85 8C17.58 8 15.75 9.81 15.75 12.04C15.75 12.36 15.79 12.66 15.86 12.96C12.45 12.79 9.43 11.18 7.4 8.74C7.05 9.34 6.84 10.03 6.84 10.77C6.84 12.17 7.56 13.41 8.67 14.13C8 14.11 7.36 13.93 6.81 13.62V13.67C6.81 15.63 8.23 17.26 10.1 17.63C9.76 17.72 9.39 17.77 9.02 17.77C8.76 17.77 8.5 17.74 8.25 17.7C8.77 19.3 10.29 20.47 12.08 20.51C10.68 21.59 8.91 22.24 6.98 22.24C6.65 22.24 6.32 22.22 6 22.18C7.82 23.33 9.97 24 12.29 24C19.84 24 23.96 17.85 23.96 12.51C23.96 12.33 23.96 12.16 23.95 11.99C24.75 11.41 25.45 10.7 26 9.89Z" fill="black"/>
</g>
<defs>
<clipPath id="clip0_1_349">
<rect width="32" height="32" fill="white"/>
</clipPath>
</defs>
</svg>
