<svg width="32" height="32" viewBox="0 0 32 32" fill="none" xmlns="http://www.w3.org/2000/svg">
<g clip-path="url(#clip0_1_361)">
<path fill-rule="evenodd" clip-rule="evenodd" d="M28 32H4C1.79 32 0 30.21 0 28V4C0 1.79 1.79 0 4 0H28C30.21 0 32 1.79 32 4V28C32 30.21 30.21 32 28 32Z" fill="white"/>
<path d="M10.34 8.97C10.34 10.05 9.48 10.92 8.13 10.92C6.83 10.92 5.97 10.05 6 8.97C5.97 7.85 6.83 7 8.16 7C9.48 7 10.31 7.85 10.34 8.97ZM6.11 25V12.46H10.21V25H6.11Z" fill="black"/>
<path d="M13.49 16.4602C13.49 14.9002 13.44 13.5602 13.38 12.4602H16.94L17.13 14.1802H17.21C17.75 13.3802 19.1 12.1802 21.28 12.1802C23.98 12.1802 26 13.8702 26 17.5602V25.0002H21.9V18.0502C21.9 16.4302 21.31 15.3302 19.82 15.3302C18.69 15.3302 18.01 16.0702 17.74 16.7902C17.63 17.0502 17.58 17.4102 17.58 17.7602V25.0002H13.48L13.49 16.4602Z" fill="black"/>
</g>
<defs>
<clipPath id="clip0_1_361">
<rect width="32" height="32" fill="white"/>
</clipPath>
</defs>
</svg>
