<svg width="20" height="20" viewBox="0 0 20 20" fill="none" xmlns="http://www.w3.org/2000/svg">
<g clip-path="url(#clip0_1_379)">
<mask id="mask0_1_379" style="mask-type:luminance" maskUnits="userSpaceOnUse" x="0" y="0" width="20" height="20">
<path d="M19.6 0.543945H0.400024V19.7439H19.6V0.543945Z" fill="white"/>
</mask>
<g mask="url(#mask0_1_379)">
<path d="M10 2.27435C12.5632 2.27435 12.8672 2.28395 13.88 2.33035C16.4816 2.44875 17.6968 3.68315 17.8152 6.26555C17.8616 7.27755 17.8704 7.58155 17.8704 10.1448C17.8704 12.7088 17.8608 13.012 17.8152 14.024C17.696 16.604 16.484 17.8408 13.88 17.9592C12.8672 18.0056 12.5648 18.0152 10 18.0152C7.43682 18.0152 7.13282 18.0056 6.12082 17.9592C3.51282 17.84 2.30402 16.6 2.18562 14.0232C2.13922 13.0112 2.12962 12.708 2.12962 10.144C2.12962 7.58075 2.14002 7.27755 2.18562 6.26475C2.30482 3.68315 3.51682 2.44795 6.12082 2.32955C7.13362 2.28395 7.43682 2.27435 10 2.27435ZM10 0.543945C7.39282 0.543945 7.06642 0.555145 6.04242 0.601545C2.55602 0.761545 0.618424 2.69595 0.458424 6.18555C0.411224 7.21035 0.400024 7.53675 0.400024 10.144C0.400024 12.7512 0.411224 13.0784 0.457624 14.1024C0.617624 17.5888 2.55202 19.5264 6.04162 19.6864C7.06642 19.7328 7.39282 19.744 10 19.744C12.6072 19.744 12.9344 19.7328 13.9584 19.6864C17.4416 19.5264 19.384 17.592 19.5416 14.1024C19.5888 13.0784 19.6 12.7512 19.6 10.144C19.6 7.53675 19.5888 7.21035 19.5424 6.18635C19.3856 2.70315 17.4488 0.762345 13.9592 0.602345C12.9344 0.555145 12.6072 0.543945 10 0.543945ZM10 5.21435C7.27762 5.21435 5.07042 7.42155 5.07042 10.144C5.07042 12.8664 7.27762 15.0744 10 15.0744C12.7224 15.0744 14.9296 12.8672 14.9296 10.144C14.9296 7.42155 12.7224 5.21435 10 5.21435ZM10 13.344C8.23282 13.344 6.80002 11.912 6.80002 10.144C6.80002 8.37675 8.23282 6.94395 10 6.94395C11.7672 6.94395 13.2 8.37675 13.2 10.144C13.2 11.912 11.7672 13.344 10 13.344ZM15.1248 3.86795C14.488 3.86795 13.972 4.38395 13.972 5.01995C13.972 5.65595 14.488 6.17195 15.1248 6.17195C15.7608 6.17195 16.276 5.65595 16.276 5.01995C16.276 4.38395 15.7608 3.86795 15.1248 3.86795Z" fill="black"/>
</g>
</g>
<defs>
<clipPath id="clip0_1_379">
<rect width="20" height="20" fill="white"/>
</clipPath>
</defs>
</svg>
