<svg width="20" height="20" viewBox="0 0 20 20" fill="none" xmlns="http://www.w3.org/2000/svg">
<g clip-path="url(#clip0_1_395)">
<path d="M19.2 0H0.8C0.3575 0 0 0.3575 0 0.8V19.2C0 19.6425 0.3575 20 0.8 20H19.2C19.6425 20 20 19.6425 20 19.2V0.8C20 0.3575 19.6425 0 19.2 0ZM5.9325 17.0425H2.965V7.4975H5.9325V17.0425ZM4.45 6.1925C4.10981 6.19251 3.77726 6.09164 3.4944 5.90265C3.21154 5.71366 2.99107 5.44503 2.86089 5.13073C2.7307 4.81644 2.69664 4.4706 2.76302 4.13694C2.82939 3.80329 2.99322 3.49682 3.23377 3.25628C3.41362 3.07645 3.6311 2.93874 3.87055 2.85307C4.11001 2.76739 4.36549 2.73589 4.61859 2.76081C4.87168 2.78574 5.11611 2.86649 5.33425 2.99723C5.55239 3.12798 5.73882 3.30547 5.88013 3.51693C6.06912 3.79978 6.17 4.13232 6.17 4.4725C6.1675 5.4225 5.3975 6.1925 4.45 6.1925ZM17.0425 17.0425H14.0775V12.4C14.0775 11.2925 14.0575 9.87 12.535 9.87C10.9925 9.87 10.755 11.075 10.755 12.32V17.0425H7.7925V7.4975H10.6375V8.8025H10.6775C11.0725 8.0525 12.04 7.26 13.485 7.26C16.49 7.26 17.0425 9.2375 17.0425 11.8075V17.0425Z" fill="black"/>
</g>
<defs>
<clipPath id="clip0_1_395">
<rect width="20" height="20" fill="white"/>
</clipPath>
</defs>
</svg>
