<svg width="20" height="20" viewBox="0 0 20 20" fill="none" xmlns="http://www.w3.org/2000/svg">
<path d="M9.99999 2.37402C5.74193 2.37402 2.25806 5.85789 2.25806 10.116C2.25806 14.374 5.74193 17.8579 9.99999 17.8579C14.2581 17.8579 17.7419 14.374 17.7419 10.116C17.7419 5.85789 14.2581 2.37402 9.99999 2.37402ZM13.0523 13.9869C12.9103 13.9869 12.8393 13.916 12.6974 13.845C11.6329 13.2056 10.2845 12.8514 8.86515 12.8514C8.08451 12.8514 7.2329 12.9934 6.52322 13.1353C6.38128 13.1353 6.23935 13.2063 6.16838 13.2063C5.88451 13.2063 5.67161 12.9934 5.67161 12.7095C5.67161 12.4256 5.81354 12.2127 6.09741 12.2127C7.01999 11.9998 7.94322 11.8579 8.93677 11.8579C10.569 11.8579 12.0593 12.2837 13.3368 12.9934C13.4787 13.1353 13.6206 13.2063 13.6206 13.4902C13.4774 13.845 13.2645 13.9869 13.0523 13.9869ZM13.8323 12.0005C13.6903 12.0005 13.5484 11.9295 13.4064 11.8585C12.2 11.0779 10.4961 10.6521 8.6516 10.6521C7.72902 10.6521 6.87677 10.794 6.2387 10.936C6.09677 11.0069 6.0258 11.0069 5.88386 11.0069C5.52902 11.0069 5.31548 10.7231 5.31548 10.4385C5.31548 10.0837 5.45741 9.94177 5.81225 9.79919C6.66386 9.58629 7.51612 9.37338 8.72257 9.37338C10.7097 9.37338 12.5548 9.87016 14.1168 10.7927C14.3297 10.9347 14.4716 11.1476 14.4716 11.3611C14.4 11.716 14.1877 12.0005 13.8323 12.0005ZM14.7548 9.72887C14.6129 9.72887 14.5419 9.6579 14.329 9.58693C12.9097 8.80629 10.8516 8.30951 8.86451 8.30951C7.87096 8.30951 6.80644 8.45145 5.88322 8.66435C5.74128 8.66435 5.67031 8.73532 5.45741 8.73532C5.03161 8.80693 4.74773 8.45145 4.74773 8.02629C4.74773 7.60113 4.96064 7.38693 5.24451 7.31661C6.38064 7.03209 7.58709 6.89016 8.86451 6.89016C11.0645 6.89016 13.3355 7.38693 15.1103 8.30951C15.3232 8.45145 15.5361 8.66435 15.5361 9.01919C15.4652 9.445 15.1806 9.72887 14.7548 9.72887Z" fill="black"/>
</svg>
