<svg width="20" height="20" viewBox="0 0 20 20" fill="none" xmlns="http://www.w3.org/2000/svg">
<path d="M9.99999 2.37402C5.72451 2.37402 2.25806 5.84047 2.25806 10.116C2.25806 13.396 4.2987 16.1973 7.1787 17.325C7.11096 16.7127 7.04967 15.7727 7.2058 15.1044C7.34644 14.5005 8.11354 11.256 8.11354 11.256C8.11354 11.256 7.88193 10.7921 7.88193 10.1069C7.88193 9.03016 8.5058 8.22693 9.28257 8.22693C9.94322 8.22693 10.2619 8.72306 10.2619 9.31726C10.2619 9.98177 9.83935 10.9747 9.62064 11.8947C9.43806 12.6656 10.0071 13.294 10.7671 13.294C12.1432 13.294 13.2006 11.8431 13.2006 9.74887C13.2006 7.89532 11.869 6.59919 9.96709 6.59919C7.76451 6.59919 6.4716 8.25145 6.4716 9.95919C6.4716 10.6244 6.72773 11.3379 7.04773 11.7263C7.11096 11.8031 7.11999 11.8702 7.10128 11.9482C7.04257 12.1927 6.91225 12.7185 6.88644 12.8263C6.8529 12.9682 6.77419 12.9979 6.62773 12.9295C5.66064 12.4792 5.05612 11.0656 5.05612 9.93016C5.05612 7.48822 6.83031 5.24499 10.1716 5.24499C12.8574 5.24499 14.9445 7.15855 14.9445 9.71661C14.9445 12.385 13.2619 14.5321 10.9271 14.5321C10.1426 14.5321 9.40515 14.1244 9.1529 13.6431C9.1529 13.6431 8.76451 15.1211 8.67031 15.4837C8.49548 16.156 8.02386 16.9992 7.70773 17.5134C8.43225 17.7366 9.20193 17.8579 9.99999 17.8579C14.2755 17.8579 17.7419 14.3914 17.7419 10.116C17.7419 5.84047 14.2755 2.37402 9.99999 2.37402Z" fill="black"/>
</svg>
